<svg width="789" height="789" viewBox="0 0 789 789" fill="none" xmlns="http://www.w3.org/2000/svg">
<path d="M23.245 312.36C-61.7766 140.469 100.696 -49.9112 279.638 11.9264L444.992 69.0684C476.957 80.1143 511.143 83.18 544.516 78.0346C756.699 45.3175 877.256 318.261 711.272 456.818L622.218 531.157C603.811 546.523 588.087 564.949 575.71 585.655L515.833 685.827C404.23 872.535 122.1 788.92 124.378 570.34C124.735 535.961 116.997 501.904 101.81 471.199L23.245 312.36Z" fill="#7555BE"/>
<path d="M23.245 312.36C-61.7766 140.469 100.696 -49.9112 279.638 11.9264L444.992 69.0684C476.957 80.1143 511.143 83.18 544.516 78.0346C756.699 45.3175 877.256 318.261 711.272 456.818L622.218 531.157C603.811 546.523 588.087 564.949 575.71 585.655L515.833 685.827C404.23 872.535 122.1 788.92 124.378 570.34C124.735 535.961 116.997 501.904 101.81 471.199L23.245 312.36Z" fill="url(#paint0_linear)" style="mix-blend-mode:lighten"/>
<defs>
<linearGradient id="paint0_linear" x1="82.2637" y1="129.04" x2="394.497" y2="789.002" gradientUnits="userSpaceOnUse">
<stop stop-color="#FF02C7"/>
<stop offset="0.989368" stop-color="white" stop-opacity="0"/>
<stop offset="1" stop-color="#CBBFE6" stop-opacity="0.377677"/>
</linearGradient>
</defs>
</svg>
