<svg width="1920" height="1080" viewBox="0 0 1920 1080" fill="none" xmlns="http://www.w3.org/2000/svg">
<path d="M1688.12 258.622C1859.23 205.847 2008.14 387.266 1923.03 544.805L1745.46 873.473C1736.86 889.388 1730.46 906.395 1726.43 924.03L1643.3 1288.23C1603.45 1462.8 1371.88 1501.06 1278 1348.57L1082.15 1030.46C1072.67 1015.06 1061.14 1001.01 1047.88 988.706L774.041 734.607C642.783 612.81 725.44 393.138 904.43 388.08L1277.85 377.527C1295.93 377.016 1313.86 374.054 1331.15 368.723L1688.12 258.622Z" fill="#220464"/>
<path d="M1707.46 -188.395C1875.58 -250.039 2033.77 -76.6493 1957 85.1223L1796.85 422.62C1789.09 438.962 1783.59 456.281 1780.49 474.103L1716.5 842.15C1685.82 1018.56 1456.57 1068.87 1354.85 921.499L1142.65 614.053C1132.37 599.166 1120.13 585.741 1106.24 574.147L819.501 334.704C682.058 219.933 753.123 -3.75803 931.604 -18.1625L1303.96 -48.2138C1321.99 -49.669 1339.74 -53.5635 1356.73 -59.7908L1707.46 -188.395Z" fill="#7555BE"/>
<path d="M2182.83 3.77956C2358.51 -30.8202 2487.65 165.17 2386.53 312.95L2175.58 621.256C2165.36 636.185 2157.22 652.43 2151.38 669.548L2030.62 1023.06C1972.75 1192.51 1738.45 1206.35 1661.02 1044.89L1499.5 708.048C1491.68 691.738 1481.68 676.563 1469.78 662.941L1224 381.61C1106.19 246.76 1211.36 36.9316 1389.9 50.6105L1762.37 79.1485C1780.41 80.5303 1798.55 79.4589 1816.3 75.9636L2182.83 3.77956Z" fill="#FF02C7"/>
</svg>
