<svg width="252" height="87" viewBox="0 0 252 87" fill="none" xmlns="http://www.w3.org/2000/svg">
<g filter="url(#filter0_d)">
<path d="M25 0C25.0134 15.4665 33.263 29.7552 46.6506 37.5C33.2496 29.7784 16.7504 29.7784 3.34937 37.5C16.737 29.7552 24.9866 15.4665 25 0Z" fill="#7555BE"/>
</g>
<path d="M28.8438 61.8125C28.8438 60.4583 28.2812 59.4271 27.1562 58.7188C26.0521 58.0104 24.2083 57.3854 21.625 56.8438C19.0417 56.3021 16.8854 55.6146 15.1562 54.7812C11.3646 52.9479 9.46875 50.2917 9.46875 46.8125C9.46875 43.8958 10.6979 41.4583 13.1562 39.5C15.6146 37.5417 18.7396 36.5625 22.5312 36.5625C26.5729 36.5625 29.8333 37.5625 32.3125 39.5625C34.8125 41.5625 36.0625 44.1562 36.0625 47.3438H28.4688C28.4688 45.8854 27.9271 44.6771 26.8438 43.7188C25.7604 42.7396 24.3229 42.25 22.5312 42.25C20.8646 42.25 19.5 42.6354 18.4375 43.4062C17.3958 44.1771 16.875 45.2083 16.875 46.5C16.875 47.6667 17.3646 48.5729 18.3438 49.2188C19.3229 49.8646 21.3021 50.5208 24.2812 51.1875C27.2604 51.8333 29.5938 52.6146 31.2812 53.5312C32.9896 54.4271 34.25 55.5104 35.0625 56.7812C35.8958 58.0521 36.3125 59.5938 36.3125 61.4062C36.3125 64.4479 35.0521 66.9167 32.5312 68.8125C30.0104 70.6875 26.7083 71.625 22.625 71.625C19.8542 71.625 17.3854 71.125 15.2188 70.125C13.0521 69.125 11.3646 67.75 10.1562 66C8.94792 64.25 8.34375 62.3646 8.34375 60.3438H15.7188C15.8229 62.1354 16.5 63.5208 17.75 64.5C19 65.4583 20.6562 65.9375 22.7188 65.9375C24.7188 65.9375 26.2396 65.5625 27.2812 64.8125C28.3229 64.0417 28.8438 63.0417 28.8438 61.8125ZM50.4375 40.875C52.9167 38 56.0521 36.5625 59.8438 36.5625C67.0521 36.5625 70.7083 40.6771 70.8125 48.9062V71H63.2188V49.1875C63.2188 46.8542 62.7083 45.2083 61.6875 44.25C60.6875 43.2708 59.2083 42.7812 57.25 42.7812C54.2083 42.7812 51.9375 44.1354 50.4375 46.8438V71H42.8438V23H50.4375V40.875ZM77.0938 53.7812C77.0938 50.4688 77.75 47.4896 79.0625 44.8438C80.375 42.1771 82.2188 40.1354 84.5938 38.7188C86.9688 37.2812 89.6979 36.5625 92.7812 36.5625C97.3438 36.5625 101.042 38.0312 103.875 40.9688C106.729 43.9062 108.271 47.8021 108.5 52.6562L108.531 54.4375C108.531 57.7708 107.885 60.75 106.594 63.375C105.323 66 103.49 68.0312 101.094 69.4688C98.7188 70.9062 95.9688 71.625 92.8438 71.625C88.0729 71.625 84.25 70.0417 81.375 66.875C78.5208 63.6875 77.0938 59.4479 77.0938 54.1562V53.7812ZM84.6875 54.4375C84.6875 57.9167 85.4062 60.6458 86.8438 62.625C88.2812 64.5833 90.2812 65.5625 92.8438 65.5625C95.4062 65.5625 97.3958 64.5625 98.8125 62.5625C100.25 60.5625 100.969 57.6354 100.969 53.7812C100.969 50.3646 100.229 47.6562 98.75 45.6562C97.2917 43.6562 95.3021 42.6562 92.7812 42.6562C90.3021 42.6562 88.3333 43.6458 86.875 45.625C85.4167 47.5833 84.6875 50.5208 84.6875 54.4375ZM132.656 44.125C131.656 43.9583 130.625 43.875 129.562 43.875C126.083 43.875 123.74 45.2083 122.531 47.875V71H114.938V37.1875H122.188L122.375 40.9688C124.208 38.0312 126.75 36.5625 130 36.5625C131.083 36.5625 131.979 36.7083 132.688 37L132.656 44.125ZM148.531 28.9688V37.1875H154.5V42.8125H148.531V61.6875C148.531 62.9792 148.781 63.9167 149.281 64.5C149.802 65.0625 150.719 65.3438 152.031 65.3438C152.906 65.3438 153.792 65.2396 154.688 65.0312V70.9062C152.958 71.3854 151.292 71.625 149.688 71.625C143.854 71.625 140.938 68.4062 140.938 61.9688V42.8125H135.375V37.1875H140.938V28.9688H148.531ZM175.062 54.7188H158.656V48.5938H175.062V54.7188ZM201.812 67.6875C199.583 70.3125 196.417 71.625 192.312 71.625C188.646 71.625 185.865 70.5521 183.969 68.4062C182.094 66.2604 181.156 63.1562 181.156 59.0938V37.1875H188.75V59C188.75 63.2917 190.531 65.4375 194.094 65.4375C197.781 65.4375 200.271 64.1146 201.562 61.4688V37.1875H209.156V71H202L201.812 67.6875ZM234.594 44.125C233.594 43.9583 232.562 43.875 231.5 43.875C228.021 43.875 225.677 45.2083 224.469 47.875V71H216.875V37.1875H224.125L224.312 40.9688C226.146 38.0312 228.688 36.5625 231.938 36.5625C233.021 36.5625 233.917 36.7083 234.625 37L234.594 44.125ZM247.469 71H239.875V23H247.469V71Z" fill="black"/>
<defs>
<filter id="filter0_d" x="3.34937" y="0" width="53.3013" height="37.5" filterUnits="userSpaceOnUse" color-interpolation-filters="sRGB">
<feFlood flood-opacity="0" result="BackgroundImageFix"/>
<feColorMatrix in="SourceAlpha" type="matrix" values="0 0 0 0 0 0 0 0 0 0 0 0 0 0 0 0 0 0 127 0"/>
<feOffset dx="10"/>
<feColorMatrix type="matrix" values="0 0 0 0 1 0 0 0 0 0.00784314 0 0 0 0 0.780392 0 0 0 1 0"/>
<feBlend mode="normal" in2="BackgroundImageFix" result="effect1_dropShadow"/>
<feBlend mode="normal" in="SourceGraphic" in2="effect1_dropShadow" result="shape"/>
</filter>
</defs>
</svg>
